<?xml version="1.0"?>
<svg xmlns="http://www.w3.org/2000/svg" xmlns:xlink="http://www.w3.org/1999/xlink" version="1.1" id="Capa_1" x="0px" y="0px" viewBox="0 0 47.902 47.902" style="enable-background:new 0 0 47.902 47.902;" xml:space="preserve" width="512px" height="512px"><g><g>
	<g>
		<polygon points="34.554,17.56 33.673,19.699 35.444,19.699   " data-original="#000000" class="active-path" data-old_color="#000000" fill="#FFFFFF"/>
	</g>
</g><g>
	<g>
		<polygon points="4.105,17.56 3.234,19.699 4.983,19.699   " data-original="#000000" class="active-path" data-old_color="#000000" fill="#FFFFFF"/>
	</g>
</g><g>
	<g>
		<path d="M24.32,17.863c-0.152-0.086-0.386-0.097-0.608-0.097h-1.58v1.191h1.559c0.247,0,0.455-0.004,0.634-0.11    c0.165-0.087,0.264-0.276,0.264-0.51C24.589,18.107,24.486,17.941,24.32,17.863z" data-original="#000000" class="active-path" data-old_color="#000000" fill="#FFFFFF"/>
	</g>
</g><g>
	<g>
		<path d="M29.816,27.093C29.66,27,29.43,26.996,29.204,26.996h-1.58v1.205h1.559c0.25,0,0.463-0.008,0.636-0.109    c0.166-0.102,0.265-0.285,0.265-0.516C30.081,27.345,29.982,27.179,29.816,27.093z" data-original="#000000" class="active-path" data-old_color="#000000" fill="#FFFFFF"/>
	</g>
</g><g>
	<g>
		<path d="M23.571,26.994h-1.672v1.367h1.656c0.493,0,0.8-0.244,0.8-0.707C24.354,27.182,24.035,26.994,23.571,26.994z" data-original="#000000" class="active-path" data-old_color="#000000" fill="#FFFFFF"/>
	</g>
</g><g>
	<g>
		<path d="M47.262,27.8c-0.009-0.009-0.019-0.019-0.028-0.026c0.243-0.158,0.405-0.432,0.405-0.744v-1.143    c0-0.491-0.397-0.887-0.887-0.887h-2.57c-0.801,0-1.405,0.236-1.845,0.592C42.214,25.248,41.898,25,41.511,25h-2.57    c-0.707,0-1.264,0.175-1.688,0.463C37.099,25.188,36.822,25,36.49,25h-4.28c-0.345,0-0.636,0.201-0.783,0.488    c-0.061-0.043-0.106-0.093-0.17-0.131C30.636,25.025,29.976,25,29.296,25h-2.963c-0.345,0-0.637,0.203-0.783,0.492    C25.099,25.199,24.468,25,23.571,25h-4.098c-0.247,0-0.482,0.1-0.651,0.282l-0.971,1.047l-0.932-1.035    c-0.167-0.191-0.406-0.295-0.659-0.295h-5.158c-0.49,0-0.886,0.397-0.886,0.887v5.367c0,0.491,0.397,0.887,0.886,0.887h5.081    c0.247,0,0.482-0.103,0.65-0.285l0.979-1.059l0.929,1.045c0.168,0.19,0.41,0.297,0.663,0.297h2.493    c0.491,0,0.887-0.397,0.887-0.885v-0.916h0.713c0.867,0,1.494-0.178,1.95-0.449v1.365c0,0.489,0.397,0.885,0.887,0.885h1.289    c0.491,0,0.887-0.397,0.887-0.885v-1.076h0.483c0.118,0,0.201,0.004,0.261,0.008c0.004,0.096,0.004,0.211,0.002,0.287v0.781    c0,0.489,0.399,0.885,0.887,0.885h1.287c0.144,0,0.274-0.039,0.392-0.1c0.12,0.059,0.249,0.1,0.391,0.1h4.281    c0.139,0,0.268-0.039,0.385-0.096c0.117,0.057,0.243,0.096,0.385,0.096h2.498c0.795,0,1.443-0.195,1.928-0.539    c0.133,0.316,0.447,0.539,0.814,0.539h2.498c1.817,0,2.9-0.965,2.9-2.58C47.902,28.81,47.7,28.253,47.262,27.8z M23.498,29.45    h-1.6v1.801h-2.493l-1.58-1.776l-1.642,1.776h-5.081v-5.368h5.158l1.58,1.76l1.632-1.76h4.098c1.017,0,2.162,0.285,2.162,1.771    C25.732,29.143,24.62,29.453,23.498,29.45z M30.591,28.759c0.284,0.104,0.517,0.293,0.625,0.451    c0.183,0.262,0.207,0.506,0.213,0.979v1.064h-1.287v-0.672c0-0.322,0.031-0.801-0.209-1.051c-0.184-0.191-0.469-0.236-0.939-0.236    h-1.37v1.959h-1.289v-5.367h2.963c0.648,0,1.12,0.027,1.543,0.252c0.404,0.244,0.659,0.58,0.659,1.191    C31.5,28.187,30.927,28.624,30.591,28.759z M36.492,26.995h-3.004v0.977h2.93v1.096h-2.93v1.066l3.004,0.006v1.113h-4.28v-5.367    h4.28V26.995z M39.763,31.247h-2.498v-1.153h2.487c0.242,0,0.415-0.03,0.523-0.133c0.088-0.082,0.15-0.205,0.15-0.351    c0-0.156-0.066-0.279-0.156-0.354c-0.1-0.082-0.232-0.119-0.457-0.119c-1.198-0.039-2.701,0.037-2.701-1.66    c0-0.781,0.488-1.598,1.834-1.598h2.57v1.142h-2.353c-0.235,0-0.386,0.01-0.514,0.098c-0.141,0.088-0.194,0.217-0.194,0.387    c0,0.203,0.119,0.338,0.28,0.4c0.137,0.047,0.281,0.061,0.5,0.061l0.689,0.02c0.695,0.019,1.174,0.139,1.463,0.432    c0.252,0.259,0.385,0.587,0.385,1.138C41.771,30.714,41.052,31.253,39.763,31.247z M45.004,31.247h-2.498v-1.153h2.488    c0.242,0,0.415-0.03,0.522-0.133c0.088-0.082,0.15-0.205,0.15-0.351c0-0.156-0.066-0.279-0.156-0.354    c-0.099-0.082-0.231-0.119-0.457-0.119c-1.199-0.039-2.701,0.037-2.701-1.66c0-0.781,0.488-1.598,1.834-1.598h2.57v1.142h-2.352    c-0.236,0-0.388,0.01-0.515,0.098c-0.141,0.088-0.193,0.217-0.193,0.387c0,0.203,0.12,0.338,0.279,0.4    c0.138,0.047,0.281,0.061,0.5,0.061l0.689,0.02c0.696,0.019,1.176,0.139,1.465,0.432c0.25,0.259,0.385,0.587,0.385,1.138    C47.014,30.714,46.293,31.253,45.004,31.247z" data-original="#000000" class="active-path" data-old_color="#000000" fill="#FFFFFF"/>
	</g>
</g><g>
	<g>
		<path d="M43.236,15.762h-1.313c-0.491,0-0.887,0.397-0.887,0.886v0.554l-0.609-1.011c-0.162-0.265-0.449-0.428-0.758-0.428h-1.955    c-0.49,0-0.886,0.397-0.886,0.886v0.753L36.357,16.3c-0.139-0.325-0.459-0.537-0.813-0.537h-1.922    c-0.195,0-0.381,0.064-0.529,0.176c-0.147-0.111-0.332-0.176-0.531-0.176h-1.239c-1.054,0-1.834,0.255-2.408,0.753    c-0.066-0.423-0.417-0.753-0.859-0.753h-1.31c-0.35,0-0.643,0.207-0.789,0.499c-0.055-0.04-0.097-0.088-0.159-0.124    c-0.602-0.348-1.235-0.375-1.998-0.375h-2.95c-0.166,0-0.311,0.058-0.445,0.137c-0.131-0.079-0.278-0.137-0.444-0.137h-4.284    c-0.181,0-0.338,0.067-0.478,0.159c-0.141-0.092-0.298-0.159-0.478-0.159h-2.138c-0.354,0-0.675,0.213-0.814,0.541L11.007,18.1    l-0.839-1.822c-0.146-0.314-0.461-0.515-0.805-0.515H7.269c-0.49,0-0.886,0.397-0.886,0.886v0.771l-0.481-1.122    c-0.14-0.325-0.46-0.536-0.815-0.536H3.183c-0.355,0-0.675,0.212-0.815,0.537l-2.296,5.367c-0.118,0.275-0.089,0.587,0.074,0.837    c0.164,0.248,0.442,0.398,0.74,0.398H2.28c0.356,0,0.679-0.216,0.816-0.546l0.271-0.652h1.486l0.267,0.648    C5.256,22.683,5.58,22.9,5.94,22.9h2.609c0.49,0,0.886-0.397,0.886-0.886v-0.021l0.168,0.381c0.142,0.32,0.46,0.527,0.81,0.527    l1.127,0.002c0.352,0,0.668-0.207,0.81-0.528l0.17-0.38v0.022c0,0.489,0.396,0.885,0.886,0.885h1.315    c0.18,0,0.337-0.068,0.478-0.159c0.14,0.091,0.297,0.159,0.478,0.159h4.284c0.166,0,0.313-0.058,0.444-0.137    c0.133,0.079,0.279,0.137,0.445,0.137h1.284c0.49,0,0.886-0.397,0.886-0.886V20.95h0.49c0.111,0,0.19,0.003,0.249,0.007    c0.006,0.091,0.004,0.199,0.004,0.271l-0.002,0.118l0.005,0.677c0.004,0.486,0.401,0.879,0.887,0.879h1.294    c0.145,0,0.276-0.045,0.397-0.107c0.123,0.063,0.255,0.107,0.401,0.107h1.31c0.43,0,0.77-0.31,0.853-0.714    c0.727,0.611,1.751,0.714,2.321,0.714h1.503c0.358,0,0.682-0.22,0.817-0.555l0.261-0.643h1.478l0.271,0.652    c0.137,0.329,0.459,0.545,0.818,0.545h2.61c0.49,0,0.886-0.397,0.886-0.886v-0.847l0.787,1.305    c0.161,0.265,0.448,0.428,0.76,0.428h1.816c0.49,0,0.886-0.397,0.886-0.886v-5.367C44.122,16.159,43.724,15.762,43.236,15.762z     M14.72,22.014h-1.315L13.4,17.811l-1.86,4.203h-1.127L8.55,17.807v4.207H5.939l-0.493-1.197h-2.67l-0.498,1.197H0.884    l2.297-5.367h1.904l2.183,5.082v-5.082h2.094l1.679,3.641l1.541-3.641h2.138C14.72,16.647,14.72,22.014,14.72,22.014z     M19.96,17.765h-3.002v0.967h2.931v1.1h-2.931v1.072h3.002v1.11h-4.284v-5.367h4.284V17.765z M25.097,19.524    c0.281,0.108,0.521,0.296,0.635,0.452c0.182,0.267,0.213,0.505,0.213,0.984v1.053h-1.294l-0.006-0.677    c0-0.322,0.031-0.786-0.202-1.045c-0.187-0.188-0.473-0.229-0.935-0.229h-1.375v1.952h-1.284h-0.001v-5.366h2.95    c0.656,0,1.139,0.017,1.553,0.257c0.406,0.24,0.649,0.59,0.649,1.189C26,18.949,25.429,19.392,25.097,19.524z M28.056,22.014    h-1.31v-5.367h1.31V22.014z M43.236,22.014h-1.817l-2.433-4.028v4.028h-2.61l-0.5-1.197H33.21l-0.482,1.197h-1.502    c-0.623,0-1.41-0.138-1.856-0.593c-0.454-0.456-0.688-1.074-0.688-2.049c0-0.796,0.141-1.524,0.687-2.1    c0.413-0.428,1.062-0.625,1.948-0.625h1.239v1.15h-1.215c-0.467,0-0.732,0.069-0.986,0.318c-0.219,0.226-0.368,0.653-0.368,1.216    c0,0.574,0.114,0.988,0.354,1.259c0.199,0.213,0.559,0.277,0.894,0.277h0.575l1.812-4.22h1.922l2.17,5.076v-5.076h1.955    l2.254,3.738v-3.738h1.313V22.014z M31.788,18.684l-0.557,1.299c-0.123,0-0.206-0.014-0.252-0.026    c-0.043-0.08-0.102-0.257-0.102-0.625c0-0.372,0.09-0.565,0.102-0.582c0.037-0.036,0.068-0.067,0.369-0.067L31.788,18.684z" data-original="#000000" class="active-path" data-old_color="#000000" fill="#FFFFFF"/>
	</g>
</g><g>
	<g>
		<polygon points="18.651,28.578 20.621,30.766 20.621,26.463   " data-original="#000000" class="active-path" data-old_color="#000000" fill="#FFFFFF"/>
	</g>
</g><g>
	<g>
		<polygon points="15.597,26.996 12.383,26.996 12.383,27.971 15.198,27.971 15.198,29.067 12.383,29.067 12.383,30.135     15.535,30.135 17,28.558   " data-original="#000000" class="active-path" data-old_color="#000000" fill="#FFFFFF"/>
	</g>
</g></g> </svg>
