<?xml version="1.0"?>
<svg xmlns="http://www.w3.org/2000/svg" xmlns:xlink="http://www.w3.org/1999/xlink" version="1.1" id="Capa_1" x="0px" y="0px" viewBox="0 0 47.949 47.949" style="enable-background:new 0 0 47.949 47.949;" xml:space="preserve" width="512px" height="512px" class=""><g><g>
	<g>
		<polygon points="35.712,14.123 35.712,12.996 32.038,12.996 32.038,19.641 35.712,19.641 35.712,18.516 33.333,18.516     33.333,16.722 35.626,16.722 35.626,15.597 33.333,15.597 33.333,14.123   " data-original="#000000" class="active-path" data-old_color="#000000" fill="#FFFFFF"/>
	</g>
</g><g>
	<g>
		<path d="M39.334,16.844c0.975-0.199,1.514-0.866,1.514-1.884c0-1.244-0.858-1.962-2.352-1.962h-1.922v6.645h1.295v-2.67h0.168    l1.793,2.67h1.596L39.334,16.844z M38.246,16.056h-0.377l0.001-2.011h0.398c0.808,0,1.246,0.338,1.246,0.984    C39.514,15.698,39.074,16.056,38.246,16.056z" data-original="#000000" class="active-path" data-old_color="#000000" fill="#FFFFFF"/>
	</g>
</g><g>
	<g>
		<path d="M41.424,12.865c-0.285,0-0.511,0.226-0.511,0.509c0,0.283,0.228,0.509,0.511,0.509c0.274,0,0.502-0.229,0.502-0.509    C41.926,13.095,41.698,12.865,41.424,12.865z M41.419,13.792c-0.219,0-0.403-0.186-0.403-0.417s0.182-0.418,0.403-0.418    s0.404,0.189,0.404,0.418S41.643,13.792,41.419,13.792z" data-original="#000000" class="active-path" data-old_color="#000000" fill="#FFFFFF"/>
	</g>
</g><g>
	<g>
		<path d="M41.489,13.427c0.082-0.022,0.127-0.082,0.127-0.163c0-0.118-0.08-0.181-0.222-0.181h-0.188v0.584h0.139V13.44    l0.164,0.227h0.17L41.489,13.427z M41.368,13.342h-0.022V13.19h0.024c0.069,0,0.104,0.025,0.104,0.075    C41.474,13.318,41.437,13.342,41.368,13.342z" data-original="#000000" class="active-path" data-old_color="#000000" fill="#FFFFFF"/>
	</g>
</g><g>
	<g>
		<rect x="6.07" y="12.996" width="1.295" height="6.645" data-original="#000000" class="active-path" data-old_color="#000000" fill="#FFFFFF"/>
	</g>
</g><g>
	<g>
		<path d="M10.53,15.545c-0.779-0.287-1.008-0.478-1.008-0.836c0-0.419,0.408-0.737,0.967-0.737c0.387,0,0.707,0.16,1.045,0.539    l0.678-0.889c-0.559-0.487-1.225-0.736-1.953-0.736c-1.176,0-2.07,0.816-2.07,1.903c0,0.915,0.416,1.384,1.633,1.822    c0.508,0.179,0.766,0.298,0.896,0.378c0.26,0.169,0.389,0.409,0.389,0.688c0,0.538-0.428,0.938-1.006,0.938    c-0.617,0-1.117-0.31-1.414-0.887l-0.838,0.807c0.598,0.877,1.314,1.266,2.299,1.266c1.348,0,2.293-0.896,2.293-2.182    C12.44,16.563,12.002,16.084,10.53,15.545z" data-original="#000000" class="active-path" data-old_color="#000000" fill="#FFFFFF"/>
	</g>
</g><g>
	<g>
		<path d="M12.68,35.141h35.269V22.417C47.949,22.417,35.494,31.206,12.68,35.141z" data-original="#000000" class="active-path" data-old_color="#000000" fill="#FFFFFF"/>
	</g>
</g><g>
	<g>
		<path d="M1.9,12.998H0v6.645h1.893c1.004,0,1.73-0.24,2.369-0.769c0.758-0.626,1.205-1.571,1.205-2.549    C5.467,14.363,4.002,12.996,1.9,12.998z M3.414,17.988c-0.406,0.367-0.935,0.528-1.771,0.528H1.295v-4.394h0.348    c0.835,0,1.343,0.15,1.771,0.537c0.449,0.399,0.719,1.017,0.719,1.654C4.133,16.953,3.864,17.589,3.414,17.988z" data-original="#000000" class="active-path" data-old_color="#000000" fill="#FFFFFF"/>
	</g>
</g><g>
	<g>
		<polygon points="30.049,12.998 28.253,17.461 26.482,12.998 25.066,12.998 27.886,19.811 28.581,19.811 31.452,12.998   " data-original="#000000" class="active-path" data-old_color="#000000" fill="#FFFFFF"/>
	</g>
</g><g>
	<g>
		<path d="M21.936,12.807c-1.463,0-2.721,0.89-3.256,2.159c-0.18,0.423-0.277,0.888-0.277,1.376c0,1.951,1.582,3.534,3.533,3.534    c1.586,0,2.931-1.045,3.375-2.484c0.021-0.061,0.033-0.123,0.051-0.184c0.012-0.052,0.027-0.103,0.037-0.154    c0.049-0.23,0.072-0.469,0.072-0.714C25.471,14.389,23.889,12.807,21.936,12.807z" data-original="#000000" class="active-path" data-old_color="#000000" fill="#FFFFFF"/>
	</g>
</g><g>
	<g>
		<path d="M16.355,14.031c0.619,0,1.088,0.221,1.625,0.748v-1.524c-0.568-0.289-1.037-0.408-1.594-0.408    c-1.963,0-3.537,1.545-3.537,3.477c-0.001,1.952,1.532,3.465,3.505,3.465c0.559,0,1.037-0.108,1.625-0.387v-1.526    c-0.518,0.519-0.977,0.729-1.564,0.729c-1.305,0-2.23-0.947-2.23-2.292C14.185,15.039,15.14,14.031,16.355,14.031z" data-original="#000000" class="active-path" data-old_color="#000000" fill="#FFFFFF"/>
	</g>
</g></g> </svg>
